<mxfile host="app.diagrams.net" modified="2022-06-07T12:03:40.607Z" agent="5.0 (Windows NT 10.0; Win64; x64) AppleWebKit/537.36 (KHTML, like Gecko) Chrome/102.0.5005.63 Safari/537.36" etag="0RLJuUkthjdqHFPa8G9A" version="19.0.2" type="github">
  <diagram id="gkfy-YLTFHDj0vYZj4ua" name="Page-1">
    <mxGraphModel dx="1609" dy="507" grid="1" gridSize="10" guides="1" tooltips="1" connect="1" arrows="1" fold="1" page="1" pageScale="1" pageWidth="827" pageHeight="1169" math="0" shadow="0">
      <root>
        <mxCell id="0" />
        <mxCell id="1" parent="0" />
        <mxCell id="NDf8kshm5lhuevWDOavA-1" value="Player" style="shape=umlActor;verticalLabelPosition=bottom;verticalAlign=top;html=1;outlineConnect=0;" vertex="1" parent="1">
          <mxGeometry x="-760" y="80" width="30" height="60" as="geometry" />
        </mxCell>
        <mxCell id="NDf8kshm5lhuevWDOavA-5" value="ゲームを開始する" style="rounded=1;whiteSpace=wrap;html=1;" vertex="1" parent="1">
          <mxGeometry x="-680" y="80" width="120" height="60" as="geometry" />
        </mxCell>
        <mxCell id="NDf8kshm5lhuevWDOavA-10" value="" style="edgeStyle=orthogonalEdgeStyle;rounded=0;orthogonalLoop=1;jettySize=auto;html=1;" edge="1" parent="1" source="NDf8kshm5lhuevWDOavA-6" target="NDf8kshm5lhuevWDOavA-8">
          <mxGeometry relative="1" as="geometry" />
        </mxCell>
        <mxCell id="NDf8kshm5lhuevWDOavA-6" value="将棋を遊ぶ" style="rounded=1;whiteSpace=wrap;html=1;" vertex="1" parent="1">
          <mxGeometry x="-680" y="160" width="120" height="60" as="geometry" />
        </mxCell>
        <mxCell id="NDf8kshm5lhuevWDOavA-18" value="" style="edgeStyle=orthogonalEdgeStyle;rounded=0;orthogonalLoop=1;jettySize=auto;html=1;" edge="1" parent="1" source="NDf8kshm5lhuevWDOavA-7" target="NDf8kshm5lhuevWDOavA-9">
          <mxGeometry relative="1" as="geometry" />
        </mxCell>
        <mxCell id="NDf8kshm5lhuevWDOavA-23" value="" style="edgeStyle=orthogonalEdgeStyle;rounded=0;orthogonalLoop=1;jettySize=auto;html=1;" edge="1" parent="1" source="NDf8kshm5lhuevWDOavA-7" target="NDf8kshm5lhuevWDOavA-9">
          <mxGeometry relative="1" as="geometry" />
        </mxCell>
        <mxCell id="NDf8kshm5lhuevWDOavA-7" value="駒を持つ" style="rounded=1;whiteSpace=wrap;html=1;" vertex="1" parent="1">
          <mxGeometry x="-360" y="250" width="120" height="60" as="geometry" />
        </mxCell>
        <mxCell id="NDf8kshm5lhuevWDOavA-26" value="" style="edgeStyle=orthogonalEdgeStyle;rounded=0;orthogonalLoop=1;jettySize=auto;html=1;" edge="1" parent="1" source="NDf8kshm5lhuevWDOavA-8" target="NDf8kshm5lhuevWDOavA-22">
          <mxGeometry relative="1" as="geometry" />
        </mxCell>
        <mxCell id="NDf8kshm5lhuevWDOavA-8" value="手を指す" style="rounded=1;whiteSpace=wrap;html=1;" vertex="1" parent="1">
          <mxGeometry x="-520" y="160" width="120" height="60" as="geometry" />
        </mxCell>
        <mxCell id="NDf8kshm5lhuevWDOavA-19" value="" style="edgeStyle=orthogonalEdgeStyle;rounded=0;orthogonalLoop=1;jettySize=auto;html=1;" edge="1" parent="1" source="NDf8kshm5lhuevWDOavA-9" target="NDf8kshm5lhuevWDOavA-12">
          <mxGeometry relative="1" as="geometry" />
        </mxCell>
        <mxCell id="NDf8kshm5lhuevWDOavA-9" value="駒を動かす" style="rounded=1;whiteSpace=wrap;html=1;" vertex="1" parent="1">
          <mxGeometry x="-360" y="340" width="120" height="60" as="geometry" />
        </mxCell>
        <mxCell id="NDf8kshm5lhuevWDOavA-12" value="相手の手を待つ" style="rounded=1;whiteSpace=wrap;html=1;" vertex="1" parent="1">
          <mxGeometry x="-360" y="430" width="120" height="60" as="geometry" />
        </mxCell>
        <mxCell id="NDf8kshm5lhuevWDOavA-15" value="" style="endArrow=classic;html=1;rounded=0;exitX=0.5;exitY=1;exitDx=0;exitDy=0;" edge="1" parent="1" source="NDf8kshm5lhuevWDOavA-12">
          <mxGeometry width="50" height="50" relative="1" as="geometry">
            <mxPoint x="-310" y="510" as="sourcePoint" />
            <mxPoint x="-300" y="150" as="targetPoint" />
            <Array as="points">
              <mxPoint x="-300" y="520" />
              <mxPoint x="-200" y="520" />
              <mxPoint x="-200" y="120" />
              <mxPoint x="-300" y="120" />
            </Array>
          </mxGeometry>
        </mxCell>
        <mxCell id="NDf8kshm5lhuevWDOavA-25" value="" style="edgeStyle=orthogonalEdgeStyle;rounded=0;orthogonalLoop=1;jettySize=auto;html=1;" edge="1" parent="1" source="NDf8kshm5lhuevWDOavA-22" target="NDf8kshm5lhuevWDOavA-7">
          <mxGeometry relative="1" as="geometry" />
        </mxCell>
        <mxCell id="NDf8kshm5lhuevWDOavA-22" value="自分の手番" style="rounded=1;whiteSpace=wrap;html=1;" vertex="1" parent="1">
          <mxGeometry x="-360" y="160" width="120" height="60" as="geometry" />
        </mxCell>
      </root>
    </mxGraphModel>
  </diagram>
</mxfile>
